# xmcd
#
# Track frame offsets:
#	150
#	12207
#	24125
#	35312
#	48180
#	61150
#	73645
#	87187
#	96082
#	109215
#	124092
#	141020
#	155100
#	170690
#	182090
#	195185
#	208105
#	219482
#	234857
#	247195
#	260755
#
# Disc length: 3649 seconds
#
# Revision: 0
# Processed by: cddbd v1.5.2PL0 Copyright (c) Steve Scherf et al.
# Submitted via: EasyCDDAExtractor 12.0.4.1
#
DISCID=1f0e3f15
DTITLE=Johnny Cash - Reader's Digest - Greatest Hits and Singles and Previousl
DTITLE=y Unreleased
DYEAR=1900
DGENRE=Country
TTITLE0=What is Truth
TTITLE1=Flesh and Blood
TTITLE2=Little Bit of Yesterday
TTITLE3=No Need to Worry
TTITLE4=Children
TTITLE5=The Lady Came from Baltimore
TTITLE6=Look at Them Beans
TTITLE7=It's All Over
TTITLE8=I Would Like to See You Again
TTITLE9=There ain't no Good Chain Gang
TTITLE10=(Ghost) Riders in the Sky
TTITLE11=Keep Me from Blowing Away
TTITLE12=Beautiful Memphis
TTITLE13=Temptation
TTITLE14=Kate (alternate version)
TTITLE15=Navajo
TTITLE16=House on the Hill
TTITLE17=Doesn't Anybody Know My Name
TTITLE18=Millers Cave
TTITLE19=I Never Got to Know Him Very Well
TTITLE20=Lily of the Valley
EXTD=
EXTT0=
EXTT1=
EXTT2=
EXTT3=
EXTT4=
EXTT5=
EXTT6=
EXTT7=
EXTT8=
EXTT9=
EXTT10=
EXTT11=
EXTT12=
EXTT13=
EXTT14=
EXTT15=
EXTT16=
EXTT17=
EXTT18=
EXTT19=
EXTT20=
PLAYORDER=
